<svg width="106" height="29" viewBox="0 0 106 29" fill="none" xmlns="http://www.w3.org/2000/svg">
<rect y="1" width="24" height="24" rx="7" fill="#0077FF"/>
<g clip-path="url(#clip0_7_3)">
<path d="M12.5001 14.1786C13.2891 14.1786 13.9287 13.539 13.9287 12.75C13.9287 11.961 13.2891 11.3214 12.5001 11.3214C11.7111 11.3214 11.0715 11.961 11.0715 12.75C11.0715 13.539 11.7111 14.1786 12.5001 14.1786Z" fill="#FCFCFD"/>
<path d="M12.5 15.9643C16.4449 15.9643 19.6429 14.5252 19.6429 12.75C19.6429 10.9748 16.4449 9.53574 12.5 9.53574C8.55514 9.53574 5.35718 10.9748 5.35718 12.75C5.35718 14.5252 8.55514 15.9643 12.5 15.9643Z" stroke="#FCFCFD"/>
<path d="M9.71628 14.3572C11.6887 17.7735 14.534 19.8235 16.0714 18.9359C17.6087 18.0483 17.256 14.5592 15.2836 11.1429C13.3111 7.72649 10.4659 5.67651 8.92851 6.56411C7.39114 7.45171 7.74384 10.9408 9.71628 14.3572Z" stroke="#FCFCFD"/>
<path d="M9.71649 11.1429C7.74404 14.5592 7.39135 18.0483 8.92872 18.9359C10.4661 19.8235 13.3114 17.7735 15.2838 14.3572C17.2562 10.9408 17.6089 7.45172 16.0716 6.56412C14.5342 5.67652 11.6889 7.7265 9.71649 11.1429Z" stroke="#FCFCFD"/>
</g>
<path d="M36.8271 14.7788H33.7227L33.7061 12.9692H36.271C36.7248 12.9692 37.0928 12.9139 37.375 12.8032C37.6628 12.6925 37.873 12.5321 38.0059 12.3218C38.1387 12.106 38.2051 11.8403 38.2051 11.5249C38.2051 11.1652 38.1387 10.8747 38.0059 10.6533C37.873 10.432 37.6628 10.2715 37.375 10.1719C37.0928 10.0667 36.7275 10.0142 36.2793 10.0142H34.7021V20H31.9961V7.91406H36.2793C37.0042 7.91406 37.6517 7.98047 38.2217 8.11328C38.7917 8.24609 39.2759 8.45085 39.6743 8.72754C40.0783 9.00423 40.3854 9.3501 40.5957 9.76514C40.806 10.1802 40.9111 10.6699 40.9111 11.2344C40.9111 11.7269 40.8005 12.1862 40.5791 12.6123C40.3633 13.0384 40.0146 13.3843 39.5332 13.6499C39.0518 13.9155 38.4071 14.0594 37.5991 14.0815L36.8271 14.7788ZM36.7192 20H33.0337L34.0132 17.9082H36.7192C37.1343 17.9082 37.4718 17.8418 37.7319 17.709C37.992 17.5762 38.1829 17.3963 38.3047 17.1694C38.4264 16.9425 38.4873 16.688 38.4873 16.4058C38.4873 16.0737 38.4292 15.786 38.313 15.5425C38.2023 15.299 38.0252 15.1108 37.7817 14.978C37.5438 14.8452 37.2256 14.7788 36.8271 14.7788H34.4033L34.4199 12.9692H37.3833L38.0142 13.6831C38.7834 13.6665 39.3976 13.791 39.8569 14.0566C40.3218 14.3167 40.6566 14.6598 40.8613 15.0859C41.0661 15.512 41.1685 15.9631 41.1685 16.439C41.1685 17.2248 40.9997 17.8833 40.6621 18.4146C40.3245 18.9403 39.8237 19.3359 39.1597 19.6016C38.5011 19.8672 37.6877 20 36.7192 20ZM47.6846 15.7998H44.6465V13.6997H47.6846C48.1328 13.6997 48.4925 13.625 48.7637 13.4756C49.0404 13.3262 49.2424 13.1214 49.3696 12.8613C49.5024 12.5957 49.5688 12.2969 49.5688 11.9648C49.5688 11.6217 49.5024 11.3035 49.3696 11.0103C49.2424 10.7114 49.0404 10.4707 48.7637 10.2881C48.4925 10.1055 48.1328 10.0142 47.6846 10.0142H45.626V20H42.9199V7.91406H47.6846C48.6475 7.91406 49.472 8.08838 50.1582 8.43701C50.8499 8.78564 51.3784 9.26432 51.7437 9.87305C52.1144 10.4762 52.2998 11.168 52.2998 11.9482C52.2998 12.7285 52.1144 13.4064 51.7437 13.9819C51.3784 14.5575 50.8499 15.0057 50.1582 15.3267C49.472 15.6421 48.6475 15.7998 47.6846 15.7998ZM62.1611 17.9082V20H55.728V17.9082H62.1611ZM56.6494 7.91406V20H53.9434V7.91406H56.6494ZM61.3311 12.7783V14.8037H55.728V12.7783H61.3311ZM62.1694 7.91406V10.0142H55.728V7.91406H62.1694ZM68.5112 10.2134L65.3901 20H62.5015L66.9756 7.91406H68.8018L68.5112 10.2134ZM71.1011 20L67.9717 10.2134L67.6479 7.91406H69.499L73.9897 20H71.1011ZM70.9683 15.501V17.5928H64.668V15.501H70.9683ZM77.6919 7.91406V20H74.9941V7.91406H77.6919ZM84.7393 7.91406L80.2485 15.1108H77.1606L76.8286 12.6953H78.8374L81.4688 7.91406H84.7393ZM81.9419 20L78.8374 14.6543L80.7549 12.7949L85.146 20H81.9419ZM91.6123 7.91406V20H88.9146V7.91406H91.6123ZM95.2896 7.91406V10.0142H85.312V7.91406H95.2896ZM104.844 17.9082V20H98.4106V17.9082H104.844ZM99.332 7.91406V20H96.626V7.91406H99.332ZM104.014 12.7783V14.8037H98.4106V12.7783H104.014ZM104.852 7.91406V10.0142H98.4106V7.91406H104.852Z" fill="black"/>
<defs>
<clipPath id="clip0_7_3">
<rect width="15" height="13.5" fill="white" transform="translate(5 6)"/>
</clipPath>
</defs>
</svg>
