<svg width="24" height="24" viewBox="0 0 24 24" fill="none" xmlns="http://www.w3.org/2000/svg">
<rect width="24" height="24" rx="7" fill="#0077FF"/>
<g clip-path="url(#clip0_3_27)">
<path d="M12.5001 13.1786C13.2891 13.1786 13.9287 12.539 13.9287 11.75C13.9287 10.961 13.2891 10.3214 12.5001 10.3214C11.7111 10.3214 11.0715 10.961 11.0715 11.75C11.0715 12.539 11.7111 13.1786 12.5001 13.1786Z" fill="#FCFCFD"/>
<path d="M12.5 14.9643C16.4449 14.9643 19.6429 13.5252 19.6429 11.75C19.6429 9.97482 16.4449 8.53574 12.5 8.53574C8.55514 8.53574 5.35718 9.97482 5.35718 11.75C5.35718 13.5252 8.55514 14.9643 12.5 14.9643Z" stroke="#FCFCFD"/>
<path d="M9.71628 13.3572C11.6887 16.7735 14.534 18.8235 16.0714 17.9359C17.6087 17.0483 17.256 13.5592 15.2836 10.1429C13.3111 6.72649 10.4659 4.67651 8.92851 5.56411C7.39114 6.45171 7.74384 9.94078 9.71628 13.3572Z" stroke="#FCFCFD"/>
<path d="M9.71649 10.1429C7.74404 13.5592 7.39135 17.0483 8.92872 17.9359C10.4661 18.8235 13.3114 16.7735 15.2838 13.3572C17.2562 9.94078 17.6089 6.45172 16.0716 5.56412C14.5342 4.67652 11.6889 6.7265 9.71649 10.1429Z" stroke="#FCFCFD"/>
</g>
<defs>
<clipPath id="clip0_3_27">
<rect width="15" height="13.5" fill="white" transform="translate(5 5)"/>
</clipPath>
</defs>
</svg>
