<svg width="30" height="30" viewBox="0 0 30 30" fill="none" xmlns="http://www.w3.org/2000/svg">
<g clip-path="url(#clip0_17_6)">
<path d="M25.6066 4.39336C22.7735 1.56035 19.0066 0 15 0C10.9934 0 7.22648 1.56029 4.39336 4.39336C1.56035 7.22648 0 10.9934 0 15C0 19.0066 1.56029 22.7735 4.39336 25.6066C7.22648 28.4396 10.9934 30 15 30C19.0066 30 22.7735 28.4397 25.6066 25.6066C28.4396 22.7735 30 19.0066 30 15C30 10.9934 28.4397 7.22648 25.6066 4.39336ZM6.51006 25.1541C7.00541 20.8923 10.6696 17.602 15 17.602C17.2828 17.602 19.4296 18.4914 21.0443 20.1059C22.4084 21.4703 23.2688 23.2516 23.4901 25.1539C21.1899 27.0804 18.2282 28.2422 15 28.2422C11.7718 28.2422 8.81033 27.0806 6.51006 25.1541ZM15 15.7914C12.488 15.7914 10.4441 13.7476 10.4441 11.2356C10.4441 8.72338 12.4881 6.67969 15 6.67969C17.5119 6.67969 19.5559 8.72338 19.5559 11.2356C19.5559 13.7476 17.512 15.7915 15 15.7915V15.7914ZM25.0031 23.668C24.5514 21.8492 23.6124 20.188 22.2871 18.8631C21.2068 17.7827 19.9287 16.9723 18.5348 16.4644C20.2105 15.328 21.3137 13.4081 21.3137 11.2356C21.3137 7.7543 18.4813 4.92188 15 4.92188C11.5187 4.92188 8.68629 7.7543 8.68629 11.2356C8.68629 13.4093 9.79043 15.3298 11.4674 16.466C10.185 16.9334 8.9983 17.6559 7.97725 18.6071C6.49863 19.9841 5.47189 21.7399 4.99582 23.6666C2.97961 21.3423 1.75781 18.3113 1.75781 15C1.75781 7.69822 7.69822 1.75781 15 1.75781C22.3018 1.75781 28.2422 7.69822 28.2422 15C28.2422 18.3119 27.0199 21.3437 25.0031 23.668Z" fill="#ECEDF0"/>
</g>
<defs>
<clipPath id="clip0_17_6">
<rect width="30" height="30" fill="white"/>
</clipPath>
</defs>
</svg>
